# xmcd
#
# Track frame offsets: 
#        150
#        24285
#        41412
#        58900
#        78912
#        98325
#        112915
#        129007
#        148862
#        163462
#        174700
#
# Disc length: 2652 seconds
#
# Revision: 2
# Processed by: cddbd v1.5.1PL0 Copyright (c) Steve Scherf et al.
# Submitted via: ExactAudioCopy v0.95a5
#
DISCID=860a5a0b
DTITLE=譚詠麟 - 霧之戀
DYEAR=1984
DGENRE=Pop
TTITLE0=傲骨
TTITLE1=譚詠麟 - 愛的替身
TTITLE2=譚詠麟 - 亮了紅燈
TTITLE3=譚詠麟 - 霧之戀
TTITLE4=譚詠麟 - 午夜麗人
TTITLE5=譚詠麟 - 創造命運
TTITLE6=譚詠麟 - 愛火
TTITLE7=譚詠麟 - 幻影
TTITLE8=譚詠麟 - 火一般眼波
TTITLE9=譚詠麟 - 愛是這樣甜
TTITLE10=譚詠麟 - 但願不改變
EXTD=
EXTT0=
EXTT1=
EXTT2=
EXTT3=
EXTT4=
EXTT5=
EXTT6=
EXTT7=
EXTT8=
EXTT9=
EXTT10=
PLAYORDER=
